<svg xmlns:xlink="http://www.w3.org/1999/xlink" xmlns="http://www.w3.org/2000/svg" fill-opacity="1" color-rendering="auto" color-interpolation="auto" text-rendering="auto" stroke="black" stroke-linecap="square" stroke-miterlimit="10" shape-rendering="auto" stroke-opacity="1" fill="black" stroke-dasharray="none" font-weight="normal" stroke-width="1" font-family="'Dialog'" font-style="normal" stroke-linejoin="miter" font-size="12" stroke-dashoffset="0" image-rendering="auto" width="276" height="274.7575806945259" style=""><rect id="backgroundrect" width="100%" height="100%" x="0" y="0" fill="none" stroke="none" class="selected" style=""/>
  <!--Unicode Character 'TWO JOINED SQUARES' (U+29C9)-->
  <defs id="genericDefs"/>
  
<g class="currentLayer" style=""><title>Layer 1</title><g id="svg_1" class="">
    <g id="svg_2">
      <path d="M71.19696998596191,268.11932373046875 L71.19696998596191,202.86932373046875 L5.946969985961914,202.86932373046875 L5.946969985961914,2.61932373046875 L206.1969699859619,2.61932373046875 L206.1969699859619,67.86932373046875 L271.4469699859619,67.86932373046875 L271.4469699859619,268.11932373046875 L71.19696998596191,268.11932373046875 zM93.69696998596191,245.61932373046875 L248.9469699859619,245.61932373046875 L248.9469699859619,90.36932373046875 L206.1969699859619,90.36932373046875 L206.1969699859619,202.86932373046875 L93.69696998596191,202.86932373046875 L93.69696998596191,245.61932373046875 zM28.446969985961914,180.36932373046875 L71.19696998596191,180.36932373046875 L71.19696998596191,67.86932373046875 L183.6969699859619,67.86932373046875 L183.6969699859619,25.11932373046875 L28.446969985961914,25.11932373046875 L28.446969985961914,180.36932373046875 zM93.69696998596191,180.36932373046875 L183.6969699859619,180.36932373046875 L183.6969699859619,90.36932373046875 L93.69696998596191,90.36932373046875 L93.69696998596191,180.36932373046875 z" stroke="none" id="svg_3"/>
    </g>
  </g></g></svg>